<svg width="120" height="120" viewBox="0 0 120 120" fill="none" xmlns="http://www.w3.org/2000/svg">
<circle cx="60" cy="60" r="60" fill="url(#paint0_linear_95_38)"/>
<path d="M17.9756 89V33H28.6956L52.5356 72.52H46.8556L70.2956 33H81.0156L81.0956 89H68.9356L68.8556 51.64H71.1756L52.3756 83.08H46.6156L27.4156 51.64H30.1356V89H17.9756ZM98.5269 89.64C96.3935 89.64 94.5535 88.92 93.0069 87.48C91.5135 85.9867 90.7669 84.0933 90.7669 81.8C90.7669 79.5067 91.5135 77.6667 93.0069 76.28C94.5535 74.84 96.3935 74.12 98.5269 74.12C100.714 74.12 102.554 74.84 104.047 76.28C105.54 77.6667 106.287 79.5067 106.287 81.8C106.287 84.0933 105.54 85.9867 104.047 87.48C102.554 88.92 100.714 89.64 98.5269 89.64Z" fill="white"/>
<defs>
<linearGradient id="paint0_linear_95_38" x1="0" y1="0" x2="3.42328" y2="123.238" gradientUnits="userSpaceOnUse">
<stop stop-color="#6A11CB"/>
<stop offset="1" stop-color="#2575FC"/>
</linearGradient>
</defs>
</svg>
