<svg width="223" height="61" viewBox="0 0 223 61" fill="none" xmlns="http://www.w3.org/2000/svg">
<path d="M45.1011 0.831665L143.321 59.2475L0 52.1668L45.1011 0.831665Z" fill="url(#paint0_linear_50_9)"/>
<path d="M17.0103 42.9208V14.9208H22.3703L34.2903 34.6808H31.4503L43.1703 14.9208H48.5303L48.5703 42.9208H42.4903L42.4503 24.2408H43.6103L34.2103 39.9608H31.3303L21.7303 24.2408H23.0903V42.9208H17.0103ZM65.566 43.2408C63.1126 43.2408 60.9526 42.7608 59.086 41.8008C57.246 40.8408 55.8193 39.5341 54.806 37.8808C53.7926 36.2008 53.286 34.2941 53.286 32.1608C53.286 30.0008 53.7793 28.0941 54.766 26.4408C55.7793 24.7608 57.1526 23.4541 58.886 22.5208C60.6193 21.5608 62.5793 21.0808 64.766 21.0808C66.8726 21.0808 68.766 21.5341 70.446 22.4408C72.1526 23.3208 73.4993 24.6008 74.486 26.2808C75.4726 27.9341 75.966 29.9208 75.966 32.2408C75.966 32.4808 75.9526 32.7608 75.926 33.0808C75.8993 33.3741 75.8726 33.6541 75.846 33.9208H58.366V30.2808H72.566L70.166 31.3608C70.166 30.2408 69.9393 29.2674 69.486 28.4408C69.0326 27.6141 68.406 26.9741 67.606 26.5208C66.806 26.0408 65.8726 25.8008 64.806 25.8008C63.7393 25.8008 62.7926 26.0408 61.966 26.5208C61.166 26.9741 60.5393 27.6274 60.086 28.4808C59.6326 29.3074 59.406 30.2941 59.406 31.4408V32.4008C59.406 33.5741 59.6593 34.6141 60.166 35.5208C60.6993 36.4008 61.4326 37.0808 62.366 37.5608C63.326 38.0141 64.446 38.2408 65.726 38.2408C66.8726 38.2408 67.8726 38.0674 68.726 37.7208C69.606 37.3741 70.406 36.8541 71.126 36.1608L74.446 39.7608C73.4593 40.8808 72.2193 41.7474 70.726 42.3608C69.2326 42.9474 67.5126 43.2408 65.566 43.2408ZM77.8338 42.8808L78.1538 37.7608C78.3138 37.7874 78.4738 37.8141 78.6338 37.8408C78.7938 37.8408 78.9404 37.8408 79.0738 37.8408C79.8204 37.8408 80.4071 37.6274 80.8338 37.2008C81.2604 36.7741 81.5804 36.2008 81.7938 35.4808C82.0071 34.7341 82.1538 33.8941 82.2338 32.9608C82.3404 32.0274 82.4204 31.0541 82.4738 30.0408L82.7938 21.4008H101.194V42.9208H94.9538V25.0008L96.3538 26.5208H86.9138L88.2338 24.9208L87.9538 30.3208C87.8738 32.2408 87.7138 34.0008 87.4738 35.6008C87.2604 37.2008 86.9004 38.5874 86.3938 39.7608C85.8871 40.9074 85.2071 41.8008 84.3538 42.4408C83.5004 43.0541 82.4071 43.3608 81.0738 43.3608C80.5938 43.3608 80.0871 43.3208 79.5538 43.2408C79.0204 43.1608 78.4471 43.0408 77.8338 42.8808ZM117.274 43.2408C114.981 43.2408 112.941 42.7608 111.154 41.8008C109.394 40.8408 107.994 39.5341 106.954 37.8808C105.941 36.2008 105.434 34.2941 105.434 32.1608C105.434 30.0008 105.941 28.0941 106.954 26.4408C107.994 24.7608 109.394 23.4541 111.154 22.5208C112.941 21.5608 114.981 21.0808 117.274 21.0808C119.541 21.0808 121.568 21.5608 123.354 22.5208C125.141 23.4541 126.541 24.7474 127.554 26.4008C128.568 28.0541 129.074 29.9741 129.074 32.1608C129.074 34.2941 128.568 36.2008 127.554 37.8808C126.541 39.5341 125.141 40.8408 123.354 41.8008C121.568 42.7608 119.541 43.2408 117.274 43.2408ZM117.274 38.1208C118.314 38.1208 119.248 37.8808 120.074 37.4008C120.901 36.9208 121.554 36.2408 122.034 35.3608C122.514 34.4541 122.754 33.3874 122.754 32.1608C122.754 30.9074 122.514 29.8408 122.034 28.9608C121.554 28.0808 120.901 27.4008 120.074 26.9208C119.248 26.4408 118.314 26.2008 117.274 26.2008C116.234 26.2008 115.301 26.4408 114.474 26.9208C113.648 27.4008 112.981 28.0808 112.474 28.9608C111.994 29.8408 111.754 30.9074 111.754 32.1608C111.754 33.3874 111.994 34.4541 112.474 35.3608C112.981 36.2408 113.648 36.9208 114.474 37.4008C115.301 37.8808 116.234 38.1208 117.274 38.1208ZM147.854 40.1208V26.5208H140.814L140.694 29.2808C140.64 30.4274 140.574 31.5208 140.494 32.5608C140.414 33.6008 140.254 34.5474 140.014 35.4008C139.8 36.2274 139.48 36.9341 139.054 37.5208C138.627 38.0808 138.054 38.4674 137.334 38.6808L131.174 37.8008C131.947 37.8008 132.574 37.5741 133.054 37.1208C133.534 36.6408 133.907 35.9874 134.174 35.1608C134.44 34.3074 134.64 33.3474 134.774 32.2808C134.907 31.1874 135 30.0408 135.054 28.8408L135.334 21.4008H154.094V40.1208H147.854ZM130.454 47.5608V37.8008H157.174V47.5608H151.374V42.9208H136.254V47.5608H130.454ZM161.101 42.9208V21.4008H167.301V34.2008L177.781 21.4008H183.501V42.9208H177.301V30.1208L166.861 42.9208H161.101ZM203.059 42.9208V35.7608L203.939 36.7608H197.979C194.886 36.7608 192.459 36.1208 190.699 34.8408C188.939 33.5608 188.059 31.7208 188.059 29.3208C188.059 26.7608 188.979 24.8008 190.819 23.4408C192.686 22.0808 195.192 21.4008 198.339 21.4008H208.619V42.9208H203.059ZM187.739 42.9208L193.459 34.7208H199.819L194.379 42.9208H187.739ZM203.059 33.8408V24.8808L203.939 26.4808H198.459C197.179 26.4808 196.179 26.7208 195.459 27.2008C194.766 27.6808 194.419 28.4541 194.419 29.5208C194.419 31.5741 195.739 32.6008 198.379 32.6008H203.939L203.059 33.8408ZM216.856 43.2408C215.79 43.2408 214.87 42.8808 214.096 42.1608C213.35 41.4141 212.976 40.4674 212.976 39.3208C212.976 38.1741 213.35 37.2541 214.096 36.5608C214.87 35.8408 215.79 35.4808 216.856 35.4808C217.95 35.4808 218.87 35.8408 219.616 36.5608C220.363 37.2541 220.736 38.1741 220.736 39.3208C220.736 40.4674 220.363 41.4141 219.616 42.1608C218.87 42.8808 217.95 43.2408 216.856 43.2408Z" fill="white"/>
<defs>
<linearGradient id="paint0_linear_50_9" x1="0" y1="0.831665" x2="0.67966" y2="60.8625" gradientUnits="userSpaceOnUse">
<stop stop-color="#6A11CB"/>
<stop offset="1" stop-color="#2575FC"/>
</linearGradient>
</defs>
</svg>
